<svg xmlns="http://www.w3.org/2000/svg" viewBox="0 0 512.019 512.019"><path d="M178.229 376.467L135.562 333.8a10.455 10.455 0 00-8.363-3.115 10.665 10.665 0 00-7.787 4.267l-117.269 160c-3.535 4.713-2.58 11.399 2.133 14.933a10.668 10.668 0 0012.8 0l160-117.333c4.752-3.481 5.783-10.156 2.302-14.908a10.75 10.75 0 00-1.064-1.241l-.085.064z" fill="#cfd8dc"/><path d="M316.895 301.8L210.229 195.134a95.09 95.09 0 00-63.019-19.947A110.06 110.06 0 0067.125 205.8c-17.323 17.323-15.531 44.096 5.333 79.595a467.078 467.078 0 0069.333 84.821c42.432 42.411 96 86.485 135.04 86.485a39.916 39.916 0 0029.376-11.819c44.416-44.394 33.344-120.404 10.688-143.082z" fill="#d32f2f"/><path d="M402.229 216.467L295.562 109.8c-4.165-4.164-10.917-4.164-15.083 0l-85.333 85.333c-13.952 13.952-12.8 44.8 32 89.749 29.248 29.248 52.565 39.893 69.12 39.893a28.306 28.306 0 0020.629-7.893l85.333-85.333c4.165-4.165 4.165-10.917.001-15.082z" fill="#f44336"/><path d="M511.199 187.944a10.668 10.668 0 00-9.856-6.592c-23.125 0-73.899-25.003-109.781-60.885s-60.885-86.635-60.885-109.781a10.667 10.667 0 00-18.219-7.552c-43.563 43.584-57.173 117.909 10.667 185.749a142.632 142.632 0 00100.693 47.125 120.68 120.68 0 0085.056-36.459 10.666 10.666 0 002.325-11.605z" fill="#d32f2f"/><path d="M444.895 67.134C399.711 21.971 358.858.019 320.01.019c-5.891 0-10.667 4.776-10.667 10.667 0 31.851 30.123 87.872 67.115 124.885s93.056 67.115 124.885 67.115c5.891 0 10.667-4.776 10.667-10.667 0-38.869-21.952-79.723-67.115-124.885z" fill="#f44336"/></svg>